<svg xmlns="http://www.w3.org/2000/svg" width="21" height="20" viewBox="0 0 21 20" fill="#54B054)">
<path d="M10.5 0C16.0228 0 20.5 4.47715 20.5 10C20.5 15.5228 16.0228 20 10.5 20C4.97715 20 0.5 15.5228 0.5 10C0.5 4.47715 4.97715 0 10.5 0ZM14.698 7.05806C14.4811 6.8411 14.1443 6.81699 13.9007 6.98574L13.8141 7.05806L9.25 11.6225L7.19194 9.56414L7.10538 9.49182C6.8618 9.32308 6.52502 9.34719 6.30806 9.56414C6.0911 9.7811 6.06699 10.1179 6.23574 10.3615L6.30806 10.448L8.80806 12.948L8.89462 13.0203C9.10775 13.168 9.39225 13.168 9.60538 13.0203L9.69194 12.948L14.698 7.94194L14.7703 7.85538C14.9391 7.6118 14.915 7.27502 14.698 7.05806Z" fill="#54B054"/>
</svg>