<svg xmlns="http://www.w3.org/2000/svg" width="22" height="22" viewBox="0 0 22 22" fill="none">
  <g clip-path="url(#clip0_12798_278084)">
    <path d="M11.3135 6.5908L11.3135 6.59082C10.5861 6.99151 9.93706 7.60971 9.38726 8.43599L11.3135 6.5908ZM11.3135 6.5908C11.5028 6.48647 11.5719 6.2484 11.4676 6.0589L11.3135 6.5908ZM10.9356 5.9048L10.9356 5.90479C11.1251 5.80043 11.3632 5.8694 11.4675 6.05883L10.9356 5.9048ZM10.9356 5.9048C10.0886 6.37139 9.34914 7.07943 8.73523 8.00209L10.9356 5.9048ZM8.8442 8.54506C8.91077 8.58937 8.98645 8.61068 9.06103 8.61068M8.8442 8.54506L9.06103 8.61068M8.8442 8.54506C8.66419 8.42525 8.61535 8.18219 8.73519 8.00214L8.8442 8.54506ZM9.06103 8.61068C9.18691 8.61068 9.31164 8.54967 9.38724 8.43603L9.06103 8.61068Z" fill="#727272" stroke="#727272" stroke-width="0.4"/>
    <path d="M9.49582 17.6333L9.49581 17.6332L9.49232 17.6318C9.17617 17.4966 8.89411 17.376 8.29869 17.376C7.70331 17.376 7.42125 17.4966 7.10507 17.6317L7.10152 17.6332C6.74064 17.7875 6.35017 17.9535 5.59662 17.9535C4.8429 17.9535 4.45233 17.7875 4.09138 17.6332L4.16998 17.4493L4.09138 17.6332L4.08777 17.6317C3.77157 17.4965 3.4895 17.3759 2.8941 17.3759C2.29867 17.3759 2.01659 17.4965 1.70039 17.6317L1.69679 17.6332L1.61818 17.4493L1.69678 17.6332C1.33582 17.7875 0.945304 17.9535 0.19163 17.9535C-0.0244758 17.9535 -0.199984 17.7784 -0.199939 17.562L9.49582 17.6333ZM9.49582 17.6333C9.85674 17.7875 10.2473 17.9535 11.0008 17.9535C11.7543 17.9535 12.1448 17.7875 12.5057 17.6333L12.5058 17.6332M9.49582 17.6333L12.5058 17.6332M12.5058 17.6332L12.5092 17.6318C12.8254 17.4966 13.1075 17.376 13.7029 17.376C14.2982 17.376 14.5802 17.4966 14.8964 17.6317L14.9 17.6333L14.9786 17.4493M12.5058 17.6332L14.9786 17.4493M14.9786 17.4493L14.9 17.6333C15.2609 17.7875 15.6514 17.9535 16.405 17.9535C17.1585 17.9535 17.5489 17.7875 17.9098 17.6332L17.9098 17.6332M14.9786 17.4493L17.9098 17.6332M17.9098 17.6332L17.9133 17.6317C18.2294 17.4966 18.5114 17.376 19.1067 17.376C19.702 17.376 19.9839 17.4966 20.3 17.6317L20.3036 17.6332L20.3036 17.6333M17.9098 17.6332L20.3036 17.6333M20.3036 17.6333C20.6645 17.7875 21.0549 17.9535 21.8084 17.9535C22.0247 17.9535 22.2 17.7782 22.2 17.5619C22.2 17.3456 22.0247 17.1703 21.8084 17.1703C21.2131 17.1703 20.9312 17.0497 20.6151 16.9146L20.6115 16.9131L20.6115 16.913M20.3036 17.6333L20.6115 16.913M20.6115 16.913C20.2506 16.7588 19.8602 16.5928 19.1067 16.5928C18.3532 16.5928 17.9627 16.7588 17.6019 16.9131L17.5981 16.9147C17.2821 17.0498 17.0001 17.1704 16.405 17.1704C15.8097 17.1704 15.5277 17.0498 15.2115 16.9146L15.2079 16.9131L15.1293 17.097M20.6115 16.913L15.1293 17.097M15.1293 17.097L15.2079 16.9131C14.847 16.7588 14.4565 16.5928 13.7029 16.5928C12.9493 16.5928 12.5588 16.7589 12.1979 16.9131C12.1092 16.951 12.0254 16.9866 11.9388 17.0187C11.9938 14.8255 12.4186 13.6996 12.7566 13.1457C12.8613 13.2966 13.0358 13.3955 13.2331 13.3955H15.6732C15.9755 13.3955 16.2241 13.1634 16.2507 12.868H21.7593C21.9756 12.868 22.1509 12.6927 22.1509 12.4764C22.1509 12.2601 21.9756 12.0848 21.7593 12.0848H16.2531V11.8987H20.8289C21.0452 11.8987 21.2205 11.7234 21.2205 11.5071C21.2205 11.2908 21.0452 11.1155 20.8289 11.1155H16.2531V10.5461H16.7862C17.0025 10.5461 17.1778 10.3708 17.1778 10.1545C17.1778 9.93819 17.0025 9.76289 16.7862 9.76289H16.2531V4.50465H17.207C17.4233 4.50465 17.5986 4.32935 17.5986 4.11304C17.5986 3.89672 17.4233 3.72142 17.207 3.72142H16.2531V3.2648H21.7552C21.9715 3.2648 22.1468 3.0895 22.1468 2.87318C22.1468 2.65687 21.9715 2.48157 21.7552 2.48157H16.2508C16.2243 2.18616 15.9756 1.95411 15.6733 1.95411H13.2332C12.9133 1.95411 12.6534 2.21404 12.6534 2.53391V3.14165C11.9864 3.22886 10.5749 3.5776 9.16813 4.96239C8.09075 6.02287 7.24175 7.47576 6.63789 9.27123C5.91579 11.4183 5.54064 14.0758 5.51552 17.1696C4.97481 17.1591 4.70435 17.0435 4.40287 16.9147L4.39926 16.9131L4.32066 17.097M15.1293 17.097L4.32066 17.097M4.32066 17.097L4.39926 16.9131C4.03829 16.7589 3.64773 16.5929 2.89415 16.5929C2.14052 16.5929 1.74996 16.7589 1.389 16.9131L1.4676 17.097L1.38899 16.9131L1.38538 16.9147C1.06918 17.0498 0.78711 17.1704 0.191675 17.1704C-0.0245386 17.1704 -0.199893 17.3456 -0.199939 17.5619L4.32066 17.097ZM7.82823 12.5232L7.82823 12.5232C7.87081 12.3111 7.7334 12.1048 7.52146 12.0621L7.52081 12.062C7.30969 12.0202 7.10309 12.1564 7.06033 12.3689L7.06032 12.3689C6.75007 13.9136 6.60977 15.3126 6.5973 16.9947C6.50333 17.0316 6.40722 17.065 6.2996 17.0925C6.37018 10.2322 8.20364 7.01724 9.70644 5.53136C10.8802 4.37082 12.0633 4.03395 12.6534 3.93605V12.0685C12.1955 12.427 11.2112 13.6122 11.1526 17.1674C11.1044 17.1693 11.054 17.1703 11.0009 17.1703C10.4056 17.1703 10.1235 17.0497 9.80738 16.9146L9.80377 16.913L9.72515 17.0969L9.80376 16.913C9.44284 16.7587 9.05232 16.5927 8.29878 16.5927C7.91613 16.5927 7.62643 16.6354 7.38418 16.6991C7.4181 14.8116 7.62519 13.5339 7.82823 12.5232ZM13.4366 2.73721H13.6894V7.32904C13.6894 7.54535 13.8647 7.72065 14.081 7.72065C14.2974 7.72065 14.4727 7.54535 14.4727 7.32904V2.73721H15.4699V12.6122H13.4366L13.4366 2.73721Z" fill="#727272" stroke="#727272" stroke-width="0.4"/>
    <path d="M20.5919 19.0515L20.5919 19.0515L20.5944 19.0526C20.9137 19.1892 21.2028 19.3128 21.8084 19.3128C21.9971 19.3128 22.15 19.4657 22.15 19.6545L20.5919 19.0515ZM20.5919 19.0515C20.2338 18.8985 19.8505 18.7353 19.1068 18.7353C18.3629 18.7353 17.9797 18.8985 17.6216 19.0516L17.6187 19.0528C17.2995 19.1892 17.0103 19.3128 16.4051 19.3128C15.7994 19.3128 15.5103 19.1892 15.1908 19.0526L15.1883 19.0515L15.1883 19.0515M20.5919 19.0515L15.1883 19.0515M15.1883 19.0515C14.8301 18.8984 14.4468 18.7353 13.7029 18.7353C12.959 18.7353 12.5757 18.8985 12.2175 19.0516L12.2146 19.0528C11.8954 19.1893 11.6062 19.3128 11.0008 19.3128C10.3952 19.3128 10.106 19.1892 9.78662 19.0526L9.78407 19.0515L9.78405 19.0515M15.1883 19.0515H9.78405M9.78405 19.0515C9.42589 18.8984 9.04256 18.7353 8.29872 18.7353C7.55483 18.7353 7.1715 18.8985 6.81331 19.0516C6.81331 19.0516 6.81331 19.0516 6.81331 19.0516L6.81025 19.0529C6.49101 19.1893 6.20189 19.3128 5.59661 19.3128C4.99076 19.3128 4.70156 19.1892 4.38212 19.0526L4.37956 19.0515L4.37955 19.0515M9.78405 19.0515L4.37955 19.0515M4.37955 19.0515C4.02135 18.8984 3.63797 18.7353 2.89409 18.7353C2.15016 18.7353 1.76678 18.8984 1.40858 19.0515L1.40858 19.0515M4.37955 19.0515L1.40858 19.0515M1.40858 19.0515L1.40574 19.0527C1.08638 19.1892 0.797178 19.3128 0.191614 19.3128C0.00297812 19.3128 -0.15 19.4657 -0.15 19.6545C-0.15 19.8432 0.00297809 19.9961 0.191614 19.9961C0.935589 19.9961 1.31892 19.8329 1.67712 19.6798L1.67712 19.6798M1.40858 19.0515L1.67712 19.6798M1.67712 19.6798L1.67996 19.6786C1.99932 19.5421 2.28852 19.4185 2.89409 19.4185C3.49971 19.4185 3.78891 19.5421 4.10832 19.6786L4.11101 19.6798L4.16996 19.5418M1.67712 19.6798L4.16996 19.5418M4.16996 19.5418L4.11101 19.6798C4.46921 19.8329 4.85258 19.9961 5.59661 19.9961C6.34045 19.9961 6.72374 19.8329 7.08185 19.6798C7.08185 19.6798 7.08185 19.6798 7.08185 19.6798L7.08463 19.6786C7.40397 19.5421 7.69316 19.4185 8.29868 19.4185C8.90442 19.4185 9.19361 19.5422 9.51301 19.6788L9.51543 19.6798L9.51546 19.6798M4.16996 19.5418L9.51546 19.6798M9.51546 19.6798C9.87361 19.8329 10.2569 19.9961 11.0008 19.9961C11.7446 19.9961 12.1279 19.8329 12.4861 19.6798L12.4861 19.6798M9.51546 19.6798L12.4861 19.6798M12.4861 19.6798L12.4888 19.6786C12.8081 19.5421 13.0973 19.4185 13.7029 19.4185C14.3085 19.4185 14.5977 19.5421 14.9171 19.6787L14.9196 19.6798L14.9196 19.6798M12.4861 19.6798L14.9196 19.6798M14.9196 19.6798C15.2778 19.8329 15.6611 19.9961 16.405 19.9961C17.1488 19.9961 17.532 19.8329 17.8901 19.6798L17.8312 19.5419M14.9196 19.6798L17.8312 19.5419M17.8312 19.5419L17.8901 19.6798L17.8929 19.6786C18.2121 19.5421 18.5013 19.4185 19.1067 19.4185C19.7123 19.4185 20.0014 19.5421 20.3207 19.6787L20.3232 19.6798L20.3232 19.6798M17.8312 19.5419L20.3232 19.6798M20.3232 19.6798C20.6813 19.8328 21.0646 19.9961 21.8083 19.9961M20.3232 19.6798L21.8083 19.9961M21.8083 19.9961C21.997 19.9961 22.1499 19.8432 22.15 19.6545L21.8083 19.9961Z" fill="#727272" stroke="#727272" stroke-width="0.3"/>
  </g>
  <defs>
    <clipPath id="clip0_12798_278084">
      <rect width="22" height="22" fill="white"/>
    </clipPath>
  </defs>
</svg>