<svg width="213" height="157" viewBox="0 0 213 157" fill="none" xmlns="http://www.w3.org/2000/svg">
<g id="undraw_setup-analytics_ttg5 1">
<path id="Vector" d="M180.497 157H171.533C171.4 156.759 171.276 156.511 171.162 156.26C170.13 154.048 169.695 151.579 169.278 149.159L168.601 145.229C170.764 146.804 172.925 148.378 175.085 149.951C175.789 150.465 176.509 151 177.186 151.579C178.61 152.789 179.839 154.187 180.321 155.963C180.346 156.062 180.37 156.161 180.389 156.26C180.44 156.504 180.476 156.751 180.497 157Z" fill="#F0F0F0"/>
<path id="Vector_2" d="M181.754 156.26C181.755 156.276 181.754 156.292 181.751 156.307C181.721 156.543 181.665 156.776 181.585 157H177.56C177.433 156.762 177.326 156.515 177.238 156.26C177.116 155.92 177.028 155.569 176.976 155.212C176.842 153.997 176.913 152.769 177.186 151.579C177.263 151.192 177.346 150.802 177.43 150.418L177.905 148.228L180.287 152.061C181.084 153.346 181.912 154.76 181.754 156.26Z" fill="#F0F0F0"/>
<path id="Vector_3" d="M181.027 118.197H20.5266C18.8309 118.195 17.2051 117.519 16.0061 116.318C14.807 115.117 14.1325 113.488 14.1306 111.79V31.7731C14.1325 30.0745 14.807 28.4459 16.0061 27.2448C17.2052 26.0436 18.8309 25.368 20.5266 25.3661H181.027C182.722 25.368 184.348 26.0436 185.547 27.2448C186.746 28.4459 187.421 30.0745 187.423 31.7731V111.79C187.421 113.488 186.746 115.117 185.547 116.318C184.348 117.519 182.722 118.195 181.027 118.197Z" fill="#F0F0F0"/>
<path id="Vector_4" d="M198.645 140.029H38.1445C36.4488 140.027 34.8231 139.351 33.624 138.15C32.4249 136.949 31.7504 135.32 31.7485 133.622V53.6051C31.7505 51.9064 32.425 50.2779 33.624 49.0768C34.8231 47.8756 36.4488 47.2 38.1445 47.1981H198.645C200.34 47.2 201.966 47.8756 203.165 49.0767C204.364 50.2779 205.039 51.9064 205.041 53.6051V133.622C205.039 135.32 204.364 136.949 203.165 138.15C201.966 139.351 200.34 140.027 198.645 140.029Z" fill="white"/>
<path id="Vector_5" d="M198.645 140.029H38.1445C36.4488 140.027 34.8231 139.351 33.624 138.15C32.4249 136.949 31.7504 135.32 31.7485 133.622V53.6051C31.7505 51.9064 32.425 50.2779 33.624 49.0768C34.8231 47.8756 36.4488 47.2 38.1445 47.1981H198.645C200.34 47.2 201.966 47.8756 203.165 49.0767C204.364 50.2779 205.039 51.9064 205.041 53.6051V133.622C205.039 135.32 204.364 136.949 203.165 138.15C201.966 139.351 200.34 140.027 198.645 140.029ZM38.1445 48.1264C36.6945 48.128 35.3043 48.7058 34.279 49.7329C33.2537 50.76 32.6769 52.1525 32.6752 53.6051V133.622C32.6769 135.074 33.2536 136.467 34.279 137.494C35.3043 138.521 36.6945 139.099 38.1445 139.1H198.645C200.095 139.099 201.485 138.521 202.51 137.494C203.535 136.467 204.112 135.074 204.114 133.622V53.6051C204.112 52.1525 203.535 50.76 202.51 49.7329C201.485 48.7058 200.095 48.128 198.645 48.1264H38.1445Z" fill="#E4E4E4"/>
<path id="Vector_6" d="M50.4697 126.02H178.811V103.984C178.791 101.661 178.309 99.3644 177.391 97.2302C176.474 95.096 175.14 93.1669 173.469 91.5561L173.434 91.5219C171.141 89.218 163.481 83.3706 155.555 83.8664C151.368 84.1275 147.783 86.1488 144.901 89.8743C135.928 101.475 124.142 97.5591 117.915 94.1924C112.427 91.2248 106.822 89.832 101.256 90.0537C93.4599 90.3591 82.4869 93.236 74.4844 105.208C71.4279 109.777 64.7809 115.979 50.4697 119.624L50.4697 126.02Z" fill="#007EEF"/>
<path id="Vector_7" d="M186.072 126.532H50.7166C50.6042 126.532 50.4965 126.487 50.417 126.408C50.3376 126.328 50.293 126.22 50.293 126.108V61.119C50.293 61.0064 50.3376 60.8985 50.417 60.8189C50.4965 60.7394 50.6042 60.6946 50.7166 60.6946C50.8289 60.6946 50.9367 60.7394 51.0161 60.8189C51.0955 60.8985 51.1402 61.0064 51.1402 61.119V125.683H186.072C186.185 125.683 186.292 125.728 186.372 125.808C186.451 125.887 186.496 125.995 186.496 126.108C186.496 126.22 186.451 126.328 186.372 126.408C186.292 126.487 186.185 126.532 186.072 126.532Z" fill="#3F3D56"/>
<path id="Vector_8" d="M100.973 93.2672C102.376 93.2672 103.514 92.1273 103.514 90.7212C103.514 89.3151 102.376 88.1752 100.973 88.1752C99.5691 88.1752 98.4312 89.3151 98.4312 90.7212C98.4312 92.1273 99.5691 93.2672 100.973 93.2672Z" fill="#3F3D56"/>
<path id="Vector_9" d="M150.822 86.6091C152.226 86.6091 153.363 85.4693 153.363 84.0631C153.363 82.657 152.226 81.5171 150.822 81.5171C149.418 81.5171 148.28 82.657 148.28 84.0631C148.28 85.4693 149.418 86.6091 150.822 86.6091Z" fill="#3F3D56"/>
<path id="Vector_10" d="M125.897 100.342C127.301 100.342 128.439 99.2016 128.439 97.7955C128.439 96.3893 127.301 95.2495 125.897 95.2495C124.494 95.2495 123.356 96.3893 123.356 97.7955C123.356 99.2016 124.494 100.342 125.897 100.342Z" fill="#3F3D56"/>
<path id="Vector_11" d="M76.0482 104.087C77.4519 104.087 78.5898 102.947 78.5898 101.541C78.5898 100.135 77.4519 98.9946 76.0482 98.9946C74.6445 98.9946 73.5066 100.135 73.5066 101.541C73.5066 102.947 74.6445 104.087 76.0482 104.087Z" fill="#3F3D56"/>
<path id="Vector_12" d="M175.746 95.764C177.15 95.764 178.288 94.6242 178.288 93.218C178.288 91.8119 177.15 90.672 175.746 90.672C174.343 90.672 173.205 91.8119 173.205 93.218C173.205 94.6242 174.343 95.764 175.746 95.764Z" fill="#3F3D56"/>
<path id="Vector_13" d="M205.191 101.227C204.91 100.956 204.692 100.627 204.552 100.262C204.412 99.898 204.354 99.5073 204.381 99.1179C204.408 98.7286 204.52 98.3499 204.709 98.0085C204.898 97.6672 205.16 97.3715 205.475 97.1423L202.735 88.0598L207.452 89.4673L209.331 97.8765C209.68 98.4328 209.814 99.0982 209.706 99.7464C209.598 100.395 209.257 100.981 208.746 101.394C208.236 101.807 207.592 102.018 206.937 101.987C206.281 101.956 205.66 101.686 205.191 101.227Z" fill="#9E616A"/>
<path id="Vector_14" d="M160.711 47.2162C160.661 47.6033 160.696 47.9967 160.814 48.3687C160.933 48.7406 161.131 49.0821 161.395 49.3691C161.659 49.656 161.983 49.8814 162.343 50.0295C162.704 50.1775 163.093 50.2446 163.482 50.2259L167.011 59.0309L169.815 54.9782L166.033 47.2381C165.959 46.5852 165.647 45.9824 165.159 45.5439C164.67 45.1055 164.038 44.8618 163.382 44.8591C162.726 44.8564 162.092 45.0949 161.599 45.5293C161.107 45.9637 160.791 46.564 160.711 47.2162Z" fill="#9E616A"/>
<path id="Vector_15" d="M200.503 153.112H197.253L195.708 140.556L200.504 140.557L200.503 153.112Z" fill="#9E616A"/>
<path id="Vector_16" d="M201.332 156.268L190.854 156.268V156.135C190.854 155.051 191.284 154.012 192.048 153.246C192.813 152.48 193.85 152.049 194.932 152.049L201.332 152.05L201.332 156.268Z" fill="#2F2E41"/>
<path id="Vector_17" d="M189.869 153.009L186.771 152.027L189.08 139.589L193.653 141.039L189.869 153.009Z" fill="#9E616A"/>
<path id="Vector_18" d="M189.709 156.268L179.719 153.1L179.759 152.973C180.086 151.94 180.809 151.08 181.769 150.58C182.729 150.081 183.847 149.984 184.878 150.311L190.98 152.246L189.709 156.268Z" fill="#2F2E41"/>
<path id="Vector_19" d="M186.021 91.7465C186.021 91.7465 181.199 99.3303 182.903 106.099C184.607 112.868 186.462 125.878 186.462 125.878L195.7 147.901L202.586 147.62L195.748 121.654L196.018 104.293C196.018 104.293 200.771 95.9953 199.845 93.4124C198.92 90.8295 186.021 91.7465 186.021 91.7465Z" fill="#2F2E41"/>
<path id="Vector_20" d="M201.772 94.4579C201.772 94.4579 202.366 101.981 200.51 105.168C198.655 108.354 196.678 120.481 196.678 120.481L193.524 144.735L186.992 142.606L192.562 115.432L196.94 94.0565L201.772 94.4579Z" fill="#2F2E41"/>
<path id="Vector_21" d="M204.088 58.0377L198.992 54.5285L191.236 54.3028L188.535 56.9553L184.414 59.0637L184.032 93.4124C184.032 93.4124 196.375 99.3386 203.015 96.478L206.209 69.7206C207.534 64.4102 204.088 58.0377 204.088 58.0377Z" fill="#3F3D56"/>
<path id="Vector_22" d="M185.449 68.2428H171.854L162.923 52.8421L168.73 50.5377L173.649 59.302L180.768 58.6566L185.212 58.4412C185.925 58.4067 186.636 58.5286 187.296 58.7982C187.957 59.0678 188.55 59.4787 189.036 60.0021C189.521 60.5255 189.886 61.1489 190.106 61.8285C190.326 62.5081 190.394 63.2276 190.308 63.9366C190.161 65.1243 189.586 66.2173 188.691 67.0103C187.797 67.8033 186.643 68.2416 185.449 68.2428Z" fill="#3F3D56"/>
<path id="Vector_23" d="M195.747 51.4742C199.46 51.4742 202.471 48.4583 202.471 44.738C202.471 41.0176 199.46 38.0017 195.747 38.0017C192.033 38.0017 189.022 41.0176 189.022 44.738C189.022 48.4583 192.033 51.4742 195.747 51.4742Z" fill="#9E616A"/>
<path id="Vector_24" d="M203.849 43.2053C203.643 41.7265 202.643 40.3222 201.221 39.8742C200.656 38.231 199.16 37.0213 197.507 36.4939C195.976 36.005 194.326 36.0389 192.817 36.5904C191.307 37.1419 190.023 38.1798 189.166 39.5412C189.039 39.7405 188.65 40.23 188.661 40.4677C188.675 40.7697 189.136 41.0815 189.368 41.2719C189.942 41.7165 190.561 42.0993 191.216 42.4142C193.634 43.6701 192.829 45.6436 192.796 47.8801C192.78 48.9669 193.142 49.8948 194.067 50.5156C195.402 51.4115 197.313 51.0551 198.766 50.6955C200.414 50.2875 201.785 48.8369 202.725 47.4382C203.557 46.1995 204.056 44.6842 203.849 43.2053Z" fill="#2F2E41"/>
<path id="Vector_25" d="M203.782 66.6759L209.484 94.976L201.078 95.4367L203.782 66.6759Z" fill="#3F3D56"/>
<path id="Vector_26" d="M209.669 156.629C209.67 156.677 209.66 156.725 209.642 156.77C209.624 156.815 209.597 156.856 209.562 156.891C209.528 156.925 209.488 156.953 209.443 156.971C209.398 156.99 209.35 157 209.302 157H165.655C165.557 157 165.463 156.961 165.394 156.892C165.324 156.822 165.285 156.728 165.285 156.63C165.285 156.532 165.324 156.438 165.394 156.369C165.463 156.299 165.557 156.26 165.655 156.26H209.302C209.399 156.261 209.493 156.3 209.561 156.369C209.63 156.438 209.669 156.531 209.669 156.629Z" fill="#CACACA"/>
</g>
</svg>
