<svg width="80" height="80" viewBox="0 0 80 80" fill="none" xmlns="http://www.w3.org/2000/svg">
<path d="M10 66.6666V59.9999H19.1667L17.8333 58.8333C14.9444 56.2777 12.9167 53.361 11.75 50.0833C10.5833 46.8055 10 43.4999 10 40.1666C10 33.9999 11.8472 28.5138 15.5417 23.7083C19.2361 18.9027 24.0556 15.7221 30 14.1666V21.1666C26 22.611 22.7778 25.0694 20.3333 28.5416C17.8889 32.0138 16.6667 35.8888 16.6667 40.1666C16.6667 42.6666 17.1389 45.0971 18.0833 47.4583C19.0278 49.8194 20.5 51.9999 22.5 53.9999L23.3333 54.8333V46.6666H30V66.6666H10ZM40 56.6666C39.0556 56.6666 38.2639 56.3471 37.625 55.7083C36.9861 55.0694 36.6667 54.2777 36.6667 53.3333C36.6667 52.3888 36.9861 51.5971 37.625 50.9583C38.2639 50.3194 39.0556 49.9999 40 49.9999C40.9444 49.9999 41.7361 50.3194 42.375 50.9583C43.0139 51.5971 43.3333 52.3888 43.3333 53.3333C43.3333 54.2777 43.0139 55.0694 42.375 55.7083C41.7361 56.3471 40.9444 56.6666 40 56.6666ZM36.6667 43.3333V23.3333H43.3333V43.3333H36.6667ZM50 65.8333V58.8333C54 57.3888 57.2222 54.9305 59.6667 51.4583C62.1111 47.986 63.3333 44.111 63.3333 39.8333C63.3333 37.3333 62.8611 34.9027 61.9167 32.5416C60.9722 30.1805 59.5 27.9999 57.5 25.9999L56.6667 25.1666V33.3333H50V13.3333H70V19.9999H60.8333L62.1667 21.1666C64.8889 23.8888 66.875 26.8471 68.125 30.0416C69.375 33.236 70 36.4999 70 39.8333C70 45.9999 68.1528 51.486 64.4583 56.2916C60.7639 61.0971 55.9444 64.2777 50 65.8333Z" fill="#EF5350"/>
</svg>
