<svg xmlns="http://www.w3.org/2000/svg" width="24" height="24" viewBox="0 0 24 24" fill="none">
<g clip-path="url(#clip0_9950_66713)">
<path d="M23.9744 11.9873C23.9744 18.6075 18.6075 23.9744 11.9871 23.9744C5.36679 23.9744 0 18.6075 0 11.9873C0 5.3669 5.36679 0 11.9871 0C18.6075 0 23.9744 5.3669 23.9744 11.9873Z" fill="#1158A6"/>
<path d="M21.2408 9.03872H22.395V14.936H21.2408V9.03872ZM12.5285 13.3818H13.3212C13.0027 13.7316 12.554 13.9484 11.9874 13.9484C10.9042 13.9484 10.0262 13.0703 10.0262 11.9874C10.0262 10.9042 10.9042 10.0262 11.9874 10.0262C12.8324 10.0262 13.5524 10.5606 13.8282 11.3099H15.0279C14.7186 9.91521 13.4752 8.87207 11.9874 8.87207C10.2668 8.87207 8.87207 10.2668 8.87207 11.9874C8.87207 13.7079 10.2668 15.1027 11.9874 15.1027C12.7999 15.1027 13.4459 14.8188 13.9434 14.3513V14.936H15.028V12.2973H12.5285V13.3818H12.5285ZM18.2186 10.1929H17.0686V11.8019H18.2186C18.6631 11.8019 19.0232 11.4418 19.0232 10.9974C19.0232 10.5531 18.6631 10.1929 18.2186 10.1929ZM17.7499 12.9562H17.0686V14.936H15.9144V9.03872H18.2186C19.3005 9.03872 20.1773 9.91569 20.1773 10.9975C20.1773 11.7889 19.7076 12.4702 19.032 12.7792L20.3544 14.936H18.9638L17.7499 12.9562V12.9562Z" fill="white"/>
</g>
<defs>
<clipPath id="clip0_9950_66713">
<rect width="24" height="24" fill="white"/>
</clipPath>
</defs>
</svg>