<svg width="22" height="22" viewBox="0 0 22 22" fill="none" xmlns="http://www.w3.org/2000/svg">
<path d="M19.4906 17.9696C19.4906 19.7227 17.7375 21.1407 15.5633 21.1407C13.3891 21.1407 11.6359 19.7227 11.6359 17.9696C11.6359 17.3938 11.8422 16.8696 12.1687 16.4055L12.375 16.1219L12.6586 15.8125C12.3664 15.8641 11.2922 16.0704 10.9828 16.0704C10.6734 16.0704 10.0547 15.9758 9.76249 15.9329L9.33281 15.8125C9.35859 15.8641 9.69374 16.2508 9.69374 16.2508C10.0977 16.7493 10.3297 17.3422 10.3297 17.9782C10.3297 19.7313 8.57656 21.1493 6.41093 21.1493C4.24531 21.1493 2.50937 19.7313 2.50937 17.9782C2.50937 17.8149 2.51796 17.7719 2.51796 17.7719L2.55234 17.4969L5.10468 7.19302C5.10468 7.19302 5.43124 5.92114 6.69453 5.92114C7.03828 5.92114 7.31327 6.01567 7.53671 6.15317L8.37031 2.11411C8.37031 2.11411 9.17812 0.85083 10.9828 0.85083C12.7875 0.85083 13.5953 2.11411 13.5953 2.11411L14.4203 6.1102C14.6266 5.99849 14.8758 5.91255 15.1852 5.91255C16.4312 5.91255 16.6117 6.73755 16.6117 6.73755L19.4477 17.5399C19.4477 17.5399 19.4906 17.7204 19.4906 17.9696ZM6.41093 19.8774C7.85468 19.8774 9.02343 19.0266 9.02343 17.9782C9.02343 16.9297 7.85468 16.079 6.41093 16.079C4.96718 16.079 3.79843 16.9297 3.79843 17.9782C3.78984 19.018 4.96718 19.8774 6.41093 19.8774ZM6.53984 11.1891L7.34765 7.09849C7.16718 6.81489 6.94374 6.56567 6.69453 6.56567C6.14453 6.56567 5.75781 7.83755 5.75781 7.83755L3.91874 15.5461C4.59765 15.0907 5.45702 14.8071 6.41093 14.8071C6.92656 14.8071 7.40781 14.893 7.86328 15.0391C6.97812 14.343 6.41093 13.3547 6.41093 12.2633C6.41093 11.8852 6.41093 11.5243 6.53984 11.1891ZM12.9508 2.76724C12.9508 2.76724 12.057 1.49536 10.9914 1.49536C9.92577 1.49536 9.03202 2.76724 9.03202 2.76724L7.87187 9.49614C8.68827 8.8602 9.77968 8.47349 10.9914 8.47349C12.1945 8.47349 13.2945 8.8688 14.1109 9.49614L12.9508 2.76724ZM10.9914 9.73677C9.18671 9.73677 7.72578 10.8711 7.72578 12.2719C7.72578 13.6727 9.18671 14.8071 10.9914 14.8071C12.7961 14.8071 14.257 13.6727 14.257 12.2719C14.257 10.8711 12.7961 9.73677 10.9914 9.73677ZM16.2164 7.83755C16.2164 7.83755 15.7437 6.57427 15.1937 6.57427C14.9703 6.57427 14.7727 6.78911 14.618 7.04692L15.4516 11.2063C15.5633 11.5329 15.6234 11.868 15.6234 12.2204C15.6234 13.3118 15.0047 14.343 14.1195 15.0391C14.5664 14.893 15.0562 14.8071 15.5719 14.8071C16.5258 14.8071 17.3851 15.0907 18.0641 15.5461L16.2164 7.83755ZM15.5633 16.0704C14.1195 16.0704 12.9508 16.9211 12.9508 17.9696C12.9508 19.018 14.1195 19.8688 15.5633 19.8688C17.007 19.8688 18.1758 19.018 18.1758 17.9696C18.1844 16.9211 17.007 16.0704 15.5633 16.0704Z" fill="#727272" stroke="#727272"/>
</svg>
