<svg width="24" height="24" viewBox="0 0 24 24" fill="none" xmlns="http://www.w3.org/2000/svg">
<path d="M16.5 6C16.5 9.58985 19.4101 12.5 23 12.5C19.4101 12.5 16.5 15.4101 16.5 19C16.5 15.4101 13.5898 12.5 10 12.5C13.5898 12.5 16.5 9.58985 16.5 6Z" stroke="#007EEF" stroke-width="1.5" stroke-linecap="round" stroke-linejoin="round"/>
<path d="M8.5 1C8.5 3.48528 10.5147 5.5 13 5.5C10.5147 5.5 8.5 7.5147 8.5 10C8.5 7.5147 6.48528 5.5 4 5.5C6.48528 5.5 8.5 3.48528 8.5 1Z" stroke="#007EEF" stroke-width="1.2" stroke-linecap="round" stroke-linejoin="round"/>
<path d="M7 13C7 14.6569 8.34313 16 10 16C8.34313 16 7 17.3431 7 19C7 17.3431 5.65685 16 4 16C5.65685 16 7 14.6569 7 13Z" stroke="#007EEF" stroke-linecap="round" stroke-linejoin="round"/>
</svg>
