<svg width="162" height="157" viewBox="0 0 162 157" fill="none" xmlns="http://www.w3.org/2000/svg">
<g clip-path="url(#clip0_14_36840)">
<path d="M102.709 35.3089H59.3269C58.3383 35.3101 57.3905 35.703 56.6915 36.4013C55.9924 37.0997 55.5992 38.0465 55.598 39.0341V135.356L55.1008 135.508L44.4583 138.764C43.954 138.917 43.4092 138.865 42.9436 138.618C42.478 138.37 42.1296 137.949 41.9749 137.445L10.3186 34.1441C10.1645 33.6403 10.217 33.0959 10.4646 32.6307C10.7121 32.1655 11.1344 31.8174 11.6387 31.6631L28.0386 26.6465L75.5827 12.1081L91.9825 7.09144C92.2321 7.01471 92.4944 6.98789 92.7543 7.01253C93.0143 7.03717 93.2668 7.11279 93.4975 7.23505C93.7282 7.3573 93.9325 7.5238 94.0987 7.72502C94.2648 7.92624 94.3897 8.15822 94.466 8.4077L102.558 34.8122L102.709 35.3089Z" fill="#F2F2F2"/>
<path d="M112.176 34.812L102.424 2.98853C102.261 2.45829 101.996 1.96519 101.643 1.5374C101.29 1.10961 100.856 0.755521 100.366 0.495365C99.8756 0.235208 99.339 0.0740805 98.7865 0.0211948C98.234 -0.0316909 97.6765 0.0247019 97.1459 0.187145L74.0886 7.23779L26.5471 21.7786L3.48975 28.8318C2.41863 29.1603 1.52176 29.9001 0.996018 30.8886C0.470272 31.8771 0.358596 33.0336 0.685508 34.1042L34.0173 142.864C34.2829 143.728 34.8187 144.485 35.5462 145.022C36.2738 145.56 37.1546 145.851 38.0596 145.852C38.4784 145.852 38.8949 145.789 39.295 145.665L55.1008 140.832L55.598 140.678V140.159L55.1008 140.311L39.1484 145.191C38.2029 145.479 37.1818 145.38 36.3089 144.917C35.436 144.454 34.7826 143.664 34.4922 142.72L1.16292 33.9577C1.019 33.49 0.968842 32.9986 1.01531 32.5116C1.06178 32.0245 1.20396 31.5514 1.43372 31.1193C1.66347 30.6872 1.9763 30.3047 2.35426 29.9935C2.73223 29.6824 3.16791 29.4488 3.63638 29.3061L26.6937 22.253L74.2353 7.71462L97.2926 0.661497C97.6479 0.553167 98.0173 0.497931 98.3888 0.497586C99.1861 0.499374 99.9619 0.756157 100.603 1.23032C101.243 1.70449 101.715 2.37112 101.949 3.13257L111.656 34.812L111.811 35.3087H112.328L112.176 34.812Z" fill="#3F3D56"/>
<path d="M30.998 31.7441C30.5189 31.7438 30.0525 31.59 29.6672 31.3055C29.2819 31.0209 28.9981 30.6205 28.8573 30.1629L25.6553 19.7144C25.5692 19.4338 25.5394 19.1389 25.5674 18.8467C25.5954 18.5545 25.6808 18.2707 25.8187 18.0115C25.9565 17.7523 26.1441 17.5227 26.3708 17.3359C26.5974 17.1492 26.8587 17.0088 27.1397 16.9229L70.8775 3.5459C71.4449 3.37293 72.0578 3.43193 72.5817 3.70993C73.1056 3.98793 73.4977 4.46223 73.6719 5.02872L76.8739 15.4773C77.0469 16.0442 76.9878 16.6564 76.7096 17.1798C76.4313 17.7031 75.9566 18.0948 75.3896 18.269L31.6517 31.646C31.4399 31.7109 31.2196 31.744 30.998 31.7441Z" fill="#007EEF"/>
<path d="M47.7715 11.1644C50.5174 11.1644 52.7434 8.94065 52.7434 6.19746C52.7434 3.45426 50.5174 1.23047 47.7715 1.23047C45.0256 1.23047 42.7996 3.45426 42.7996 6.19746C42.7996 8.94065 45.0256 11.1644 47.7715 11.1644Z" fill="#007EEF"/>
<path d="M47.7715 9.34275C49.5103 9.34275 50.9199 7.93457 50.9199 6.1975C50.9199 4.46042 49.5103 3.05225 47.7715 3.05225C46.0327 3.05225 44.6231 4.46042 44.6231 6.1975C44.6231 7.93457 46.0327 9.34275 47.7715 9.34275Z" fill="white"/>
<path d="M150.313 144.583H66.2876C65.7274 144.582 65.1903 144.359 64.7942 143.963C64.398 143.568 64.1752 143.031 64.1746 142.472V41.89C64.1752 41.3304 64.398 40.7938 64.7942 40.398C65.1903 40.0023 65.7274 39.7797 66.2876 39.7791H150.313C150.873 39.7797 151.41 40.0023 151.807 40.3981C152.203 40.7938 152.426 41.3304 152.426 41.89V142.472C152.426 143.031 152.203 143.568 151.807 143.963C151.41 144.359 150.873 144.582 150.313 144.583Z" fill="#E6E6E6"/>
<path d="M111.656 34.812H59.3269C58.2066 34.8136 57.1325 35.2589 56.3403 36.0503C55.5481 36.8418 55.1024 37.9147 55.1008 39.034V140.311L55.598 140.159V39.034C55.5992 38.0463 55.9924 37.0995 56.6915 36.4011C57.3905 35.7028 58.3383 35.3099 59.3269 35.3087H111.811L111.656 34.812ZM157.274 34.812H59.3269C58.2066 34.8136 57.1325 35.2589 56.3403 36.0503C55.5481 36.8418 55.1024 37.9147 55.1008 39.034V152.778C55.1024 153.897 55.5481 154.97 56.3403 155.762C57.1325 156.553 58.2066 156.998 59.3269 157H157.274C158.394 156.998 159.468 156.553 160.26 155.762C161.053 154.97 161.498 153.897 161.5 152.778V39.034C161.498 37.9147 161.053 36.8418 160.26 36.0503C159.468 35.2589 158.394 34.8136 157.274 34.812ZM161.003 152.778C161.002 153.766 160.608 154.712 159.909 155.411C159.21 156.109 158.262 156.502 157.274 156.503H59.3269C58.3383 156.502 57.3905 156.109 56.6915 155.411C55.9924 154.712 55.5992 153.766 55.598 152.778V39.034C55.5992 38.0463 55.9924 37.0995 56.6915 36.4011C57.3905 35.7028 58.3383 35.3099 59.3269 35.3087H157.274C158.262 35.3099 159.21 35.7028 159.909 36.4011C160.608 37.0995 161.002 38.0463 161.003 39.034V152.778Z" fill="#3F3D56"/>
<path d="M131.171 45.7395H85.4296C84.8364 45.7388 84.2677 45.5031 83.8482 45.0841C83.4288 44.665 83.1929 44.0969 83.1922 43.5043V32.5769C83.1929 31.9843 83.4288 31.4162 83.8483 30.9972C84.2677 30.5782 84.8364 30.3425 85.4296 30.3418H131.171C131.764 30.3425 132.333 30.5782 132.753 30.9972C133.172 31.4162 133.408 31.9843 133.409 32.5769V43.5043C133.408 44.0969 133.172 44.665 132.753 45.0841C132.333 45.5031 131.764 45.7388 131.171 45.7395Z" fill="#007EEF"/>
<path d="M108.3 31.0868C111.046 31.0868 113.272 28.863 113.272 26.1198C113.272 23.3766 111.046 21.1528 108.3 21.1528C105.554 21.1528 103.328 23.3766 103.328 26.1198C103.328 28.863 105.554 31.0868 108.3 31.0868Z" fill="#007EEF"/>
<path d="M108.3 29.1452C109.973 29.1452 111.329 27.7907 111.329 26.1198C111.329 24.449 109.973 23.0945 108.3 23.0945C106.628 23.0945 105.272 24.449 105.272 26.1198C105.272 27.7907 106.628 29.1452 108.3 29.1452Z" fill="white"/>
</g>
<defs>
<clipPath id="clip0_14_36840">
<rect width="161" height="157" fill="white" transform="translate(0.5)"/>
</clipPath>
</defs>
</svg>
